G04 #@! TF.GenerationSoftware,KiCad,Pcbnew,(5.0.2)-1*
G04 #@! TF.CreationDate,2019-03-22T14:25:24+01:00*
G04 #@! TF.ProjectId,TPS63031,54505336-3330-4333-912e-6b696361645f,rev?*
G04 #@! TF.SameCoordinates,Original*
G04 #@! TF.FileFunction,Soldermask,Bot*
G04 #@! TF.FilePolarity,Negative*
%FSLAX46Y46*%
G04 Gerber Fmt 4.6, Leading zero omitted, Abs format (unit mm)*
G04 Created by KiCad (PCBNEW (5.0.2)-1) date 03/22/19 14:25:24*
%MOMM*%
%LPD*%
G01*
G04 APERTURE LIST*
%ADD10C,0.100000*%
G04 APERTURE END LIST*
D10*
G36*
X164110442Y-93185518D02*
X164176627Y-93192037D01*
X164289853Y-93226384D01*
X164346467Y-93243557D01*
X164485087Y-93317652D01*
X164502991Y-93327222D01*
X164538729Y-93356552D01*
X164640186Y-93439814D01*
X164723448Y-93541271D01*
X164752778Y-93577009D01*
X164752779Y-93577011D01*
X164836443Y-93733533D01*
X164836443Y-93733534D01*
X164887963Y-93903373D01*
X164905359Y-94080000D01*
X164887963Y-94256627D01*
X164853616Y-94369853D01*
X164836443Y-94426467D01*
X164762348Y-94565087D01*
X164752778Y-94582991D01*
X164723448Y-94618729D01*
X164640186Y-94720186D01*
X164538729Y-94803448D01*
X164502991Y-94832778D01*
X164502989Y-94832779D01*
X164346467Y-94916443D01*
X164289853Y-94933616D01*
X164176627Y-94967963D01*
X164110442Y-94974482D01*
X164044260Y-94981000D01*
X163955740Y-94981000D01*
X163889557Y-94974481D01*
X163823373Y-94967963D01*
X163710147Y-94933616D01*
X163653533Y-94916443D01*
X163497011Y-94832779D01*
X163497009Y-94832778D01*
X163461271Y-94803448D01*
X163359814Y-94720186D01*
X163276552Y-94618729D01*
X163247222Y-94582991D01*
X163237652Y-94565087D01*
X163163557Y-94426467D01*
X163146384Y-94369853D01*
X163112037Y-94256627D01*
X163094641Y-94080000D01*
X163112037Y-93903373D01*
X163163557Y-93733534D01*
X163163557Y-93733533D01*
X163247221Y-93577011D01*
X163247222Y-93577009D01*
X163276552Y-93541271D01*
X163359814Y-93439814D01*
X163461271Y-93356552D01*
X163497009Y-93327222D01*
X163514913Y-93317652D01*
X163653533Y-93243557D01*
X163710147Y-93226384D01*
X163823373Y-93192037D01*
X163889558Y-93185518D01*
X163955740Y-93179000D01*
X164044260Y-93179000D01*
X164110442Y-93185518D01*
X164110442Y-93185518D01*
G37*
G36*
X148110442Y-93185518D02*
X148176627Y-93192037D01*
X148289853Y-93226384D01*
X148346467Y-93243557D01*
X148485087Y-93317652D01*
X148502991Y-93327222D01*
X148538729Y-93356552D01*
X148640186Y-93439814D01*
X148723448Y-93541271D01*
X148752778Y-93577009D01*
X148752779Y-93577011D01*
X148836443Y-93733533D01*
X148836443Y-93733534D01*
X148887963Y-93903373D01*
X148905359Y-94080000D01*
X148887963Y-94256627D01*
X148853616Y-94369853D01*
X148836443Y-94426467D01*
X148762348Y-94565087D01*
X148752778Y-94582991D01*
X148723448Y-94618729D01*
X148640186Y-94720186D01*
X148538729Y-94803448D01*
X148502991Y-94832778D01*
X148502989Y-94832779D01*
X148346467Y-94916443D01*
X148289853Y-94933616D01*
X148176627Y-94967963D01*
X148110442Y-94974482D01*
X148044260Y-94981000D01*
X147955740Y-94981000D01*
X147889557Y-94974481D01*
X147823373Y-94967963D01*
X147710147Y-94933616D01*
X147653533Y-94916443D01*
X147497011Y-94832779D01*
X147497009Y-94832778D01*
X147461271Y-94803448D01*
X147359814Y-94720186D01*
X147276552Y-94618729D01*
X147247222Y-94582991D01*
X147237652Y-94565087D01*
X147163557Y-94426467D01*
X147146384Y-94369853D01*
X147112037Y-94256627D01*
X147094641Y-94080000D01*
X147112037Y-93903373D01*
X147163557Y-93733534D01*
X147163557Y-93733533D01*
X147247221Y-93577011D01*
X147247222Y-93577009D01*
X147276552Y-93541271D01*
X147359814Y-93439814D01*
X147461271Y-93356552D01*
X147497009Y-93327222D01*
X147514913Y-93317652D01*
X147653533Y-93243557D01*
X147710147Y-93226384D01*
X147823373Y-93192037D01*
X147889558Y-93185518D01*
X147955740Y-93179000D01*
X148044260Y-93179000D01*
X148110442Y-93185518D01*
X148110442Y-93185518D01*
G37*
G36*
X164110443Y-90645519D02*
X164176627Y-90652037D01*
X164289853Y-90686384D01*
X164346467Y-90703557D01*
X164485087Y-90777652D01*
X164502991Y-90787222D01*
X164538729Y-90816552D01*
X164640186Y-90899814D01*
X164723448Y-91001271D01*
X164752778Y-91037009D01*
X164752779Y-91037011D01*
X164836443Y-91193533D01*
X164836443Y-91193534D01*
X164887963Y-91363373D01*
X164905359Y-91540000D01*
X164887963Y-91716627D01*
X164853616Y-91829853D01*
X164836443Y-91886467D01*
X164762348Y-92025087D01*
X164752778Y-92042991D01*
X164723448Y-92078729D01*
X164640186Y-92180186D01*
X164538729Y-92263448D01*
X164502991Y-92292778D01*
X164502989Y-92292779D01*
X164346467Y-92376443D01*
X164289853Y-92393616D01*
X164176627Y-92427963D01*
X164110443Y-92434481D01*
X164044260Y-92441000D01*
X163955740Y-92441000D01*
X163889557Y-92434481D01*
X163823373Y-92427963D01*
X163710147Y-92393616D01*
X163653533Y-92376443D01*
X163497011Y-92292779D01*
X163497009Y-92292778D01*
X163461271Y-92263448D01*
X163359814Y-92180186D01*
X163276552Y-92078729D01*
X163247222Y-92042991D01*
X163237652Y-92025087D01*
X163163557Y-91886467D01*
X163146384Y-91829853D01*
X163112037Y-91716627D01*
X163094641Y-91540000D01*
X163112037Y-91363373D01*
X163163557Y-91193534D01*
X163163557Y-91193533D01*
X163247221Y-91037011D01*
X163247222Y-91037009D01*
X163276552Y-91001271D01*
X163359814Y-90899814D01*
X163461271Y-90816552D01*
X163497009Y-90787222D01*
X163514913Y-90777652D01*
X163653533Y-90703557D01*
X163710147Y-90686384D01*
X163823373Y-90652037D01*
X163889557Y-90645519D01*
X163955740Y-90639000D01*
X164044260Y-90639000D01*
X164110443Y-90645519D01*
X164110443Y-90645519D01*
G37*
G36*
X148110443Y-90645519D02*
X148176627Y-90652037D01*
X148289853Y-90686384D01*
X148346467Y-90703557D01*
X148485087Y-90777652D01*
X148502991Y-90787222D01*
X148538729Y-90816552D01*
X148640186Y-90899814D01*
X148723448Y-91001271D01*
X148752778Y-91037009D01*
X148752779Y-91037011D01*
X148836443Y-91193533D01*
X148836443Y-91193534D01*
X148887963Y-91363373D01*
X148905359Y-91540000D01*
X148887963Y-91716627D01*
X148853616Y-91829853D01*
X148836443Y-91886467D01*
X148762348Y-92025087D01*
X148752778Y-92042991D01*
X148723448Y-92078729D01*
X148640186Y-92180186D01*
X148538729Y-92263448D01*
X148502991Y-92292778D01*
X148502989Y-92292779D01*
X148346467Y-92376443D01*
X148289853Y-92393616D01*
X148176627Y-92427963D01*
X148110443Y-92434481D01*
X148044260Y-92441000D01*
X147955740Y-92441000D01*
X147889557Y-92434481D01*
X147823373Y-92427963D01*
X147710147Y-92393616D01*
X147653533Y-92376443D01*
X147497011Y-92292779D01*
X147497009Y-92292778D01*
X147461271Y-92263448D01*
X147359814Y-92180186D01*
X147276552Y-92078729D01*
X147247222Y-92042991D01*
X147237652Y-92025087D01*
X147163557Y-91886467D01*
X147146384Y-91829853D01*
X147112037Y-91716627D01*
X147094641Y-91540000D01*
X147112037Y-91363373D01*
X147163557Y-91193534D01*
X147163557Y-91193533D01*
X147247221Y-91037011D01*
X147247222Y-91037009D01*
X147276552Y-91001271D01*
X147359814Y-90899814D01*
X147461271Y-90816552D01*
X147497009Y-90787222D01*
X147514913Y-90777652D01*
X147653533Y-90703557D01*
X147710147Y-90686384D01*
X147823373Y-90652037D01*
X147889557Y-90645519D01*
X147955740Y-90639000D01*
X148044260Y-90639000D01*
X148110443Y-90645519D01*
X148110443Y-90645519D01*
G37*
G36*
X164901000Y-89901000D02*
X163099000Y-89901000D01*
X163099000Y-88099000D01*
X164901000Y-88099000D01*
X164901000Y-89901000D01*
X164901000Y-89901000D01*
G37*
G36*
X148901000Y-89901000D02*
X147099000Y-89901000D01*
X147099000Y-88099000D01*
X148901000Y-88099000D01*
X148901000Y-89901000D01*
X148901000Y-89901000D01*
G37*
M02*
