G04 #@! TF.GenerationSoftware,KiCad,Pcbnew,(5.0.2)-1*
G04 #@! TF.CreationDate,2019-03-22T14:25:24+01:00*
G04 #@! TF.ProjectId,TPS63031,54505336-3330-4333-912e-6b696361645f,rev?*
G04 #@! TF.SameCoordinates,Original*
G04 #@! TF.FileFunction,Legend,Top*
G04 #@! TF.FilePolarity,Positive*
%FSLAX46Y46*%
G04 Gerber Fmt 4.6, Leading zero omitted, Abs format (unit mm)*
G04 Created by KiCad (PCBNEW (5.0.2)-1) date 03/22/19 14:25:24*
%MOMM*%
%LPD*%
G01*
G04 APERTURE LIST*
%ADD10C,0.300000*%
%ADD11C,0.120000*%
%ADD12C,0.150000*%
G04 APERTURE END LIST*
D10*
X170421428Y-87142857D02*
X170421428Y-86285714D01*
X170421428Y-86714285D02*
X171921428Y-86714285D01*
X171707142Y-86571428D01*
X171564285Y-86428571D01*
X171492857Y-86285714D01*
X171921428Y-88500000D02*
X171921428Y-87785714D01*
X171207142Y-87714285D01*
X171278571Y-87785714D01*
X171350000Y-87928571D01*
X171350000Y-88285714D01*
X171278571Y-88428571D01*
X171207142Y-88500000D01*
X171064285Y-88571428D01*
X170707142Y-88571428D01*
X170564285Y-88500000D01*
X170492857Y-88428571D01*
X170421428Y-88285714D01*
X170421428Y-87928571D01*
X170492857Y-87785714D01*
X170564285Y-87714285D01*
X170564285Y-89214285D02*
X170492857Y-89285714D01*
X170421428Y-89214285D01*
X170492857Y-89142857D01*
X170564285Y-89214285D01*
X170421428Y-89214285D01*
X171921428Y-90214285D02*
X171921428Y-90357142D01*
X171850000Y-90500000D01*
X171778571Y-90571428D01*
X171635714Y-90642857D01*
X171350000Y-90714285D01*
X170992857Y-90714285D01*
X170707142Y-90642857D01*
X170564285Y-90571428D01*
X170492857Y-90500000D01*
X170421428Y-90357142D01*
X170421428Y-90214285D01*
X170492857Y-90071428D01*
X170564285Y-90000000D01*
X170707142Y-89928571D01*
X170992857Y-89857142D01*
X171350000Y-89857142D01*
X171635714Y-89928571D01*
X171778571Y-90000000D01*
X171850000Y-90071428D01*
X171921428Y-90214285D01*
X171921428Y-91642857D02*
X171921428Y-91785714D01*
X171850000Y-91928571D01*
X171778571Y-92000000D01*
X171635714Y-92071428D01*
X171350000Y-92142857D01*
X170992857Y-92142857D01*
X170707142Y-92071428D01*
X170564285Y-92000000D01*
X170492857Y-91928571D01*
X170421428Y-91785714D01*
X170421428Y-91642857D01*
X170492857Y-91500000D01*
X170564285Y-91428571D01*
X170707142Y-91357142D01*
X170992857Y-91285714D01*
X171350000Y-91285714D01*
X171635714Y-91357142D01*
X171778571Y-91428571D01*
X171850000Y-91500000D01*
X171921428Y-91642857D01*
X171921428Y-93071428D02*
X171921428Y-93214285D01*
X171850000Y-93357142D01*
X171778571Y-93428571D01*
X171635714Y-93500000D01*
X171350000Y-93571428D01*
X170992857Y-93571428D01*
X170707142Y-93500000D01*
X170564285Y-93428571D01*
X170492857Y-93357142D01*
X170421428Y-93214285D01*
X170421428Y-93071428D01*
X170492857Y-92928571D01*
X170564285Y-92857142D01*
X170707142Y-92785714D01*
X170992857Y-92714285D01*
X171350000Y-92714285D01*
X171635714Y-92785714D01*
X171778571Y-92857142D01*
X171850000Y-92928571D01*
X171921428Y-93071428D01*
X170421428Y-95357142D02*
X171421428Y-95357142D01*
X171278571Y-95357142D02*
X171350000Y-95428571D01*
X171421428Y-95571428D01*
X171421428Y-95785714D01*
X171350000Y-95928571D01*
X171207142Y-96000000D01*
X170421428Y-96000000D01*
X171207142Y-96000000D02*
X171350000Y-96071428D01*
X171421428Y-96214285D01*
X171421428Y-96428571D01*
X171350000Y-96571428D01*
X171207142Y-96642857D01*
X170421428Y-96642857D01*
X170421428Y-97357142D02*
X171421428Y-97357142D01*
X171278571Y-97357142D02*
X171350000Y-97428571D01*
X171421428Y-97571428D01*
X171421428Y-97785714D01*
X171350000Y-97928571D01*
X171207142Y-98000000D01*
X170421428Y-98000000D01*
X171207142Y-98000000D02*
X171350000Y-98071428D01*
X171421428Y-98214285D01*
X171421428Y-98428571D01*
X171350000Y-98571428D01*
X171207142Y-98642857D01*
X170421428Y-98642857D01*
X169000000Y-85000000D02*
X169000000Y-100000000D01*
X167000000Y-85000000D02*
X169586421Y-85000000D01*
X167000000Y-100000000D02*
X169586421Y-100000000D01*
X169000000Y-100000000D02*
X168413579Y-98873496D01*
X169000000Y-100000000D02*
X169586421Y-98873496D01*
X169000000Y-85000000D02*
X168413579Y-86126504D01*
X169000000Y-85000000D02*
X169586421Y-86126504D01*
X149785714Y-103421427D02*
X149857142Y-103349999D01*
X150000000Y-103278570D01*
X150357142Y-103278570D01*
X150500000Y-103349999D01*
X150571428Y-103421427D01*
X150642857Y-103564284D01*
X150642857Y-103707141D01*
X150571428Y-103921427D01*
X149714285Y-104778570D01*
X150642857Y-104778570D01*
X151214285Y-103421427D02*
X151285714Y-103349999D01*
X151428571Y-103278570D01*
X151785714Y-103278570D01*
X151928571Y-103349999D01*
X152000000Y-103421427D01*
X152071428Y-103564284D01*
X152071428Y-103707141D01*
X152000000Y-103921427D01*
X151142857Y-104778570D01*
X152071428Y-104778570D01*
X152714285Y-104635713D02*
X152785714Y-104707141D01*
X152714285Y-104778570D01*
X152642857Y-104707141D01*
X152714285Y-104635713D01*
X152714285Y-104778570D01*
X153714285Y-103278570D02*
X153857142Y-103278570D01*
X154000000Y-103349999D01*
X154071428Y-103421427D01*
X154142857Y-103564284D01*
X154214285Y-103849999D01*
X154214285Y-104207141D01*
X154142857Y-104492856D01*
X154071428Y-104635713D01*
X154000000Y-104707141D01*
X153857142Y-104778570D01*
X153714285Y-104778570D01*
X153571428Y-104707141D01*
X153500000Y-104635713D01*
X153428571Y-104492856D01*
X153357142Y-104207141D01*
X153357142Y-103849999D01*
X153428571Y-103564284D01*
X153500000Y-103421427D01*
X153571428Y-103349999D01*
X153714285Y-103278570D01*
X155142857Y-103278570D02*
X155285714Y-103278570D01*
X155428571Y-103349999D01*
X155500000Y-103421427D01*
X155571428Y-103564284D01*
X155642857Y-103849999D01*
X155642857Y-104207141D01*
X155571428Y-104492856D01*
X155500000Y-104635713D01*
X155428571Y-104707141D01*
X155285714Y-104778570D01*
X155142857Y-104778570D01*
X155000000Y-104707141D01*
X154928571Y-104635713D01*
X154857142Y-104492856D01*
X154785714Y-104207141D01*
X154785714Y-103849999D01*
X154857142Y-103564284D01*
X154928571Y-103421427D01*
X155000000Y-103349999D01*
X155142857Y-103278570D01*
X156571428Y-103278570D02*
X156714285Y-103278570D01*
X156857142Y-103349999D01*
X156928571Y-103421427D01*
X157000000Y-103564284D01*
X157071428Y-103849999D01*
X157071428Y-104207141D01*
X157000000Y-104492856D01*
X156928571Y-104635713D01*
X156857142Y-104707141D01*
X156714285Y-104778570D01*
X156571428Y-104778570D01*
X156428571Y-104707141D01*
X156357142Y-104635713D01*
X156285714Y-104492856D01*
X156214285Y-104207141D01*
X156214285Y-103849999D01*
X156285714Y-103564284D01*
X156357142Y-103421427D01*
X156428571Y-103349999D01*
X156571428Y-103278570D01*
X158857142Y-104778570D02*
X158857142Y-103778570D01*
X158857142Y-103921427D02*
X158928571Y-103849999D01*
X159071428Y-103778570D01*
X159285714Y-103778570D01*
X159428571Y-103849999D01*
X159500000Y-103992856D01*
X159500000Y-104778570D01*
X159500000Y-103992856D02*
X159571428Y-103849999D01*
X159714285Y-103778570D01*
X159928571Y-103778570D01*
X160071428Y-103849999D01*
X160142857Y-103992856D01*
X160142857Y-104778570D01*
X160857142Y-104778570D02*
X160857142Y-103778570D01*
X160857142Y-103921427D02*
X160928571Y-103849999D01*
X161071428Y-103778570D01*
X161285714Y-103778570D01*
X161428571Y-103849999D01*
X161500000Y-103992856D01*
X161500000Y-104778570D01*
X161500000Y-103992856D02*
X161571428Y-103849999D01*
X161714285Y-103778570D01*
X161928571Y-103778570D01*
X162071428Y-103849999D01*
X162142857Y-103992856D01*
X162142857Y-104778570D01*
X145000000Y-101999999D02*
X167000000Y-101999999D01*
X145000000Y-100000000D02*
X145000000Y-102586420D01*
X167000000Y-100000000D02*
X167000000Y-102586420D01*
X167000000Y-101999999D02*
X165873496Y-102586420D01*
X167000000Y-101999999D02*
X165873496Y-101413578D01*
X145000000Y-101999999D02*
X146126504Y-102586420D01*
X145000000Y-101999999D02*
X146126504Y-101413578D01*
D11*
G04 #@! TO.C,J1*
X146670000Y-95410000D02*
X149330000Y-95410000D01*
X146670000Y-90270000D02*
X146670000Y-95410000D01*
X149330000Y-90270000D02*
X149330000Y-95410000D01*
X146670000Y-90270000D02*
X149330000Y-90270000D01*
X146670000Y-89000000D02*
X146670000Y-87670000D01*
X146670000Y-87670000D02*
X148000000Y-87670000D01*
G04 #@! TO.C,J2*
X162670000Y-87670000D02*
X164000000Y-87670000D01*
X162670000Y-89000000D02*
X162670000Y-87670000D01*
X162670000Y-90270000D02*
X165330000Y-90270000D01*
X165330000Y-90270000D02*
X165330000Y-95410000D01*
X162670000Y-90270000D02*
X162670000Y-95410000D01*
X162670000Y-95410000D02*
X165330000Y-95410000D01*
G04 #@! TO.C,L1*
X154562200Y-86792000D02*
X154962200Y-86792000D01*
X154562200Y-89992000D02*
X154962200Y-89992000D01*
G04 #@! TO.C,U1*
X153113001Y-93718001D02*
X153113001Y-94383001D01*
X156413001Y-91083001D02*
X156413001Y-91748001D01*
X156413001Y-93718001D02*
X156413001Y-94383001D01*
X153113001Y-91083001D02*
X153113001Y-91748001D01*
X156163001Y-94383001D02*
X156413001Y-94383001D01*
X153363001Y-94383001D02*
X153113001Y-94383001D01*
X153113001Y-91083001D02*
X153363001Y-91083001D01*
G04 #@! TO.C,C1*
D12*
X151741142Y-89650866D02*
X151788761Y-89698485D01*
X151836380Y-89841342D01*
X151836380Y-89936580D01*
X151788761Y-90079438D01*
X151693523Y-90174676D01*
X151598285Y-90222295D01*
X151407809Y-90269914D01*
X151264952Y-90269914D01*
X151074476Y-90222295D01*
X150979238Y-90174676D01*
X150884000Y-90079438D01*
X150836380Y-89936580D01*
X150836380Y-89841342D01*
X150884000Y-89698485D01*
X150931619Y-89650866D01*
X151836380Y-88698485D02*
X151836380Y-89269914D01*
X151836380Y-88984200D02*
X150836380Y-88984200D01*
X150979238Y-89079438D01*
X151074476Y-89174676D01*
X151122095Y-89269914D01*
G04 #@! TO.C,C2*
X158278533Y-96419942D02*
X158230914Y-96467561D01*
X158088057Y-96515180D01*
X157992819Y-96515180D01*
X157849961Y-96467561D01*
X157754723Y-96372323D01*
X157707104Y-96277085D01*
X157659485Y-96086609D01*
X157659485Y-95943752D01*
X157707104Y-95753276D01*
X157754723Y-95658038D01*
X157849961Y-95562800D01*
X157992819Y-95515180D01*
X158088057Y-95515180D01*
X158230914Y-95562800D01*
X158278533Y-95610419D01*
X158659485Y-95610419D02*
X158707104Y-95562800D01*
X158802342Y-95515180D01*
X159040438Y-95515180D01*
X159135676Y-95562800D01*
X159183295Y-95610419D01*
X159230914Y-95705657D01*
X159230914Y-95800895D01*
X159183295Y-95943752D01*
X158611866Y-96515180D01*
X159230914Y-96515180D01*
G04 #@! TO.C,C3*
X160529542Y-89574666D02*
X160577161Y-89622285D01*
X160624780Y-89765142D01*
X160624780Y-89860380D01*
X160577161Y-90003238D01*
X160481923Y-90098476D01*
X160386685Y-90146095D01*
X160196209Y-90193714D01*
X160053352Y-90193714D01*
X159862876Y-90146095D01*
X159767638Y-90098476D01*
X159672400Y-90003238D01*
X159624780Y-89860380D01*
X159624780Y-89765142D01*
X159672400Y-89622285D01*
X159720019Y-89574666D01*
X159624780Y-89241333D02*
X159624780Y-88622285D01*
X160005733Y-88955619D01*
X160005733Y-88812761D01*
X160053352Y-88717523D01*
X160100971Y-88669904D01*
X160196209Y-88622285D01*
X160434304Y-88622285D01*
X160529542Y-88669904D01*
X160577161Y-88717523D01*
X160624780Y-88812761D01*
X160624780Y-89098476D01*
X160577161Y-89193714D01*
X160529542Y-89241333D01*
G04 #@! TO.C,C4*
X158294342Y-89574666D02*
X158341961Y-89622285D01*
X158389580Y-89765142D01*
X158389580Y-89860380D01*
X158341961Y-90003238D01*
X158246723Y-90098476D01*
X158151485Y-90146095D01*
X157961009Y-90193714D01*
X157818152Y-90193714D01*
X157627676Y-90146095D01*
X157532438Y-90098476D01*
X157437200Y-90003238D01*
X157389580Y-89860380D01*
X157389580Y-89765142D01*
X157437200Y-89622285D01*
X157484819Y-89574666D01*
X157722914Y-88717523D02*
X158389580Y-88717523D01*
X157341961Y-88955619D02*
X158056247Y-89193714D01*
X158056247Y-88574666D01*
G04 #@! TO.C,J1*
X147666666Y-86122380D02*
X147666666Y-86836666D01*
X147619047Y-86979523D01*
X147523809Y-87074761D01*
X147380952Y-87122380D01*
X147285714Y-87122380D01*
X148666666Y-87122380D02*
X148095238Y-87122380D01*
X148380952Y-87122380D02*
X148380952Y-86122380D01*
X148285714Y-86265238D01*
X148190476Y-86360476D01*
X148095238Y-86408095D01*
G04 #@! TO.C,J2*
X163666666Y-86122380D02*
X163666666Y-86836666D01*
X163619047Y-86979523D01*
X163523809Y-87074761D01*
X163380952Y-87122380D01*
X163285714Y-87122380D01*
X164095238Y-86217619D02*
X164142857Y-86170000D01*
X164238095Y-86122380D01*
X164476190Y-86122380D01*
X164571428Y-86170000D01*
X164619047Y-86217619D01*
X164666666Y-86312857D01*
X164666666Y-86408095D01*
X164619047Y-86550952D01*
X164047619Y-87122380D01*
X164666666Y-87122380D01*
G04 #@! TO.C,L1*
X151750733Y-87701380D02*
X151274542Y-87701380D01*
X151274542Y-86701380D01*
X152607876Y-87701380D02*
X152036447Y-87701380D01*
X152322161Y-87701380D02*
X152322161Y-86701380D01*
X152226923Y-86844238D01*
X152131685Y-86939476D01*
X152036447Y-86987095D01*
G04 #@! TO.C,R1*
X150379133Y-96388180D02*
X150045800Y-95911990D01*
X149807704Y-96388180D02*
X149807704Y-95388180D01*
X150188657Y-95388180D01*
X150283895Y-95435800D01*
X150331514Y-95483419D01*
X150379133Y-95578657D01*
X150379133Y-95721514D01*
X150331514Y-95816752D01*
X150283895Y-95864371D01*
X150188657Y-95911990D01*
X149807704Y-95911990D01*
X151331514Y-96388180D02*
X150760085Y-96388180D01*
X151045800Y-96388180D02*
X151045800Y-95388180D01*
X150950561Y-95531038D01*
X150855323Y-95626276D01*
X150760085Y-95673895D01*
G04 #@! TO.C,R2*
X152030133Y-97988380D02*
X151696800Y-97512190D01*
X151458704Y-97988380D02*
X151458704Y-96988380D01*
X151839657Y-96988380D01*
X151934895Y-97036000D01*
X151982514Y-97083619D01*
X152030133Y-97178857D01*
X152030133Y-97321714D01*
X151982514Y-97416952D01*
X151934895Y-97464571D01*
X151839657Y-97512190D01*
X151458704Y-97512190D01*
X152411085Y-97083619D02*
X152458704Y-97036000D01*
X152553942Y-96988380D01*
X152792038Y-96988380D01*
X152887276Y-97036000D01*
X152934895Y-97083619D01*
X152982514Y-97178857D01*
X152982514Y-97274095D01*
X152934895Y-97416952D01*
X152363466Y-97988380D01*
X152982514Y-97988380D01*
G04 #@! TO.C,U1*
X157200695Y-94041980D02*
X157200695Y-94851504D01*
X157248314Y-94946742D01*
X157295933Y-94994361D01*
X157391171Y-95041980D01*
X157581647Y-95041980D01*
X157676885Y-94994361D01*
X157724504Y-94946742D01*
X157772123Y-94851504D01*
X157772123Y-94041980D01*
X158772123Y-95041980D02*
X158200695Y-95041980D01*
X158486409Y-95041980D02*
X158486409Y-94041980D01*
X158391171Y-94184838D01*
X158295933Y-94280076D01*
X158200695Y-94327695D01*
G04 #@! TD*
M02*
