G04 #@! TF.GenerationSoftware,KiCad,Pcbnew,(5.0.2)-1*
G04 #@! TF.CreationDate,2019-03-22T14:25:24+01:00*
G04 #@! TF.ProjectId,TPS63031,54505336-3330-4333-912e-6b696361645f,rev?*
G04 #@! TF.SameCoordinates,Original*
G04 #@! TF.FileFunction,Soldermask,Top*
G04 #@! TF.FilePolarity,Negative*
%FSLAX46Y46*%
G04 Gerber Fmt 4.6, Leading zero omitted, Abs format (unit mm)*
G04 Created by KiCad (PCBNEW (5.0.2)-1) date 03/22/19 14:25:24*
%MOMM*%
%LPD*%
G01*
G04 APERTURE LIST*
%ADD10C,0.100000*%
G04 APERTURE END LIST*
D10*
G36*
X155947000Y-98087000D02*
X155025000Y-98087000D01*
X155025000Y-96985000D01*
X155947000Y-96985000D01*
X155947000Y-98087000D01*
X155947000Y-98087000D01*
G37*
G36*
X154347000Y-98087000D02*
X153425000Y-98087000D01*
X153425000Y-96985000D01*
X154347000Y-96985000D01*
X154347000Y-98087000D01*
X154347000Y-98087000D01*
G37*
G36*
X152569000Y-96563000D02*
X151647000Y-96563000D01*
X151647000Y-95461000D01*
X152569000Y-95461000D01*
X152569000Y-96563000D01*
X152569000Y-96563000D01*
G37*
G36*
X154169000Y-96563000D02*
X153247000Y-96563000D01*
X153247000Y-95461000D01*
X154169000Y-95461000D01*
X154169000Y-96563000D01*
X154169000Y-96563000D01*
G37*
G36*
X157217000Y-96563000D02*
X156295000Y-96563000D01*
X156295000Y-95461000D01*
X157217000Y-95461000D01*
X157217000Y-96563000D01*
X157217000Y-96563000D01*
G37*
G36*
X155617000Y-96563000D02*
X154695000Y-96563000D01*
X154695000Y-95461000D01*
X155617000Y-95461000D01*
X155617000Y-96563000D01*
X155617000Y-96563000D01*
G37*
G36*
X164110442Y-93185518D02*
X164176627Y-93192037D01*
X164289853Y-93226384D01*
X164346467Y-93243557D01*
X164485087Y-93317652D01*
X164502991Y-93327222D01*
X164538729Y-93356552D01*
X164640186Y-93439814D01*
X164723448Y-93541271D01*
X164752778Y-93577009D01*
X164752779Y-93577011D01*
X164836443Y-93733533D01*
X164847575Y-93770230D01*
X164887963Y-93903373D01*
X164905359Y-94080000D01*
X164887963Y-94256627D01*
X164853616Y-94369853D01*
X164836443Y-94426467D01*
X164795366Y-94503315D01*
X164752778Y-94582991D01*
X164730420Y-94610234D01*
X164640186Y-94720186D01*
X164538729Y-94803448D01*
X164502991Y-94832778D01*
X164502989Y-94832779D01*
X164346467Y-94916443D01*
X164289853Y-94933616D01*
X164176627Y-94967963D01*
X164110442Y-94974482D01*
X164044260Y-94981000D01*
X163955740Y-94981000D01*
X163889557Y-94974481D01*
X163823373Y-94967963D01*
X163710147Y-94933616D01*
X163653533Y-94916443D01*
X163497011Y-94832779D01*
X163497009Y-94832778D01*
X163461271Y-94803448D01*
X163359814Y-94720186D01*
X163269580Y-94610234D01*
X163247222Y-94582991D01*
X163204634Y-94503315D01*
X163163557Y-94426467D01*
X163146384Y-94369853D01*
X163112037Y-94256627D01*
X163094641Y-94080000D01*
X163112037Y-93903373D01*
X163152425Y-93770230D01*
X163163557Y-93733533D01*
X163247221Y-93577011D01*
X163247222Y-93577009D01*
X163276552Y-93541271D01*
X163359814Y-93439814D01*
X163461271Y-93356552D01*
X163497009Y-93327222D01*
X163514913Y-93317652D01*
X163653533Y-93243557D01*
X163710147Y-93226384D01*
X163823373Y-93192037D01*
X163889558Y-93185518D01*
X163955740Y-93179000D01*
X164044260Y-93179000D01*
X164110442Y-93185518D01*
X164110442Y-93185518D01*
G37*
G36*
X148110442Y-93185518D02*
X148176627Y-93192037D01*
X148289853Y-93226384D01*
X148346467Y-93243557D01*
X148485087Y-93317652D01*
X148502991Y-93327222D01*
X148538729Y-93356552D01*
X148640186Y-93439814D01*
X148723448Y-93541271D01*
X148752778Y-93577009D01*
X148752779Y-93577011D01*
X148836443Y-93733533D01*
X148847575Y-93770230D01*
X148887963Y-93903373D01*
X148905359Y-94080000D01*
X148887963Y-94256627D01*
X148853616Y-94369853D01*
X148836443Y-94426467D01*
X148795366Y-94503315D01*
X148752778Y-94582991D01*
X148730420Y-94610234D01*
X148640186Y-94720186D01*
X148538729Y-94803448D01*
X148502991Y-94832778D01*
X148502989Y-94832779D01*
X148346467Y-94916443D01*
X148289853Y-94933616D01*
X148176627Y-94967963D01*
X148110442Y-94974482D01*
X148044260Y-94981000D01*
X147955740Y-94981000D01*
X147889557Y-94974481D01*
X147823373Y-94967963D01*
X147710147Y-94933616D01*
X147653533Y-94916443D01*
X147497011Y-94832779D01*
X147497009Y-94832778D01*
X147461271Y-94803448D01*
X147359814Y-94720186D01*
X147269580Y-94610234D01*
X147247222Y-94582991D01*
X147204634Y-94503315D01*
X147163557Y-94426467D01*
X147146384Y-94369853D01*
X147112037Y-94256627D01*
X147094641Y-94080000D01*
X147112037Y-93903373D01*
X147152425Y-93770230D01*
X147163557Y-93733533D01*
X147247221Y-93577011D01*
X147247222Y-93577009D01*
X147276552Y-93541271D01*
X147359814Y-93439814D01*
X147461271Y-93356552D01*
X147497009Y-93327222D01*
X147514913Y-93317652D01*
X147653533Y-93243557D01*
X147710147Y-93226384D01*
X147823373Y-93192037D01*
X147889558Y-93185518D01*
X147955740Y-93179000D01*
X148044260Y-93179000D01*
X148110442Y-93185518D01*
X148110442Y-93185518D01*
G37*
G36*
X155767211Y-90762400D02*
X155779449Y-90763001D01*
X155973001Y-90763001D01*
X155973001Y-91553316D01*
X155969962Y-91584168D01*
X155957954Y-91623753D01*
X155938454Y-91660235D01*
X155917364Y-91685935D01*
X155903762Y-91706290D01*
X155894384Y-91728929D01*
X155889603Y-91752963D01*
X155889001Y-91765217D01*
X155889001Y-91832001D01*
X155891403Y-91856387D01*
X155898516Y-91879836D01*
X155910067Y-91901447D01*
X155925613Y-91920389D01*
X155944555Y-91935935D01*
X155966166Y-91947486D01*
X155989615Y-91954599D01*
X156014001Y-91957001D01*
X156589001Y-91957001D01*
X156589001Y-93509001D01*
X156014001Y-93509001D01*
X155989615Y-93511403D01*
X155966166Y-93518516D01*
X155944555Y-93530067D01*
X155925613Y-93545613D01*
X155910067Y-93564555D01*
X155898516Y-93586166D01*
X155891403Y-93609615D01*
X155889001Y-93634001D01*
X155889001Y-93700784D01*
X155891403Y-93725170D01*
X155898516Y-93748619D01*
X155910067Y-93770230D01*
X155917354Y-93780056D01*
X155938454Y-93805767D01*
X155957954Y-93842249D01*
X155969962Y-93881834D01*
X155973001Y-93912686D01*
X155973001Y-94703001D01*
X155779449Y-94703001D01*
X155767211Y-94703602D01*
X155763001Y-94704017D01*
X155758791Y-94703602D01*
X155746553Y-94703001D01*
X155279449Y-94703001D01*
X155267211Y-94703602D01*
X155263001Y-94704017D01*
X155258791Y-94703602D01*
X155246553Y-94703001D01*
X154779449Y-94703001D01*
X154767211Y-94703602D01*
X154763001Y-94704017D01*
X154758791Y-94703602D01*
X154746553Y-94703001D01*
X154279449Y-94703001D01*
X154267211Y-94703602D01*
X154263001Y-94704017D01*
X154258791Y-94703602D01*
X154246553Y-94703001D01*
X153779449Y-94703001D01*
X153767211Y-94703602D01*
X153763001Y-94704017D01*
X153758791Y-94703602D01*
X153746553Y-94703001D01*
X153553001Y-94703001D01*
X153553001Y-94158011D01*
X153553002Y-94158001D01*
X153553002Y-93912686D01*
X153556041Y-93881834D01*
X153568049Y-93842249D01*
X153587549Y-93805767D01*
X153608632Y-93780076D01*
X153622241Y-93759710D01*
X153631618Y-93737071D01*
X153636399Y-93713037D01*
X153637001Y-93700785D01*
X153637001Y-93634001D01*
X153634599Y-93609615D01*
X153627486Y-93586166D01*
X153615935Y-93564555D01*
X153600389Y-93545613D01*
X153581447Y-93530067D01*
X153559836Y-93518516D01*
X153536387Y-93511403D01*
X153512001Y-93509001D01*
X152937001Y-93509001D01*
X152937001Y-91957001D01*
X153512001Y-91957001D01*
X153536387Y-91954599D01*
X153559836Y-91947486D01*
X153581447Y-91935935D01*
X153600389Y-91920389D01*
X153615935Y-91901447D01*
X153627486Y-91879836D01*
X153634599Y-91856387D01*
X153637001Y-91832001D01*
X153637001Y-91765217D01*
X153634599Y-91740831D01*
X153627486Y-91717382D01*
X153615935Y-91695771D01*
X153608654Y-91685953D01*
X153587548Y-91660234D01*
X153568048Y-91623752D01*
X153560043Y-91597362D01*
X153556040Y-91584168D01*
X153555660Y-91580311D01*
X153553001Y-91553315D01*
X153553001Y-90763001D01*
X153746553Y-90763001D01*
X153758791Y-90762400D01*
X153763001Y-90761985D01*
X153767211Y-90762400D01*
X153779449Y-90763001D01*
X154246553Y-90763001D01*
X154258791Y-90762400D01*
X154263001Y-90761985D01*
X154267211Y-90762400D01*
X154279449Y-90763001D01*
X154746553Y-90763001D01*
X154758791Y-90762400D01*
X154763001Y-90761985D01*
X154767211Y-90762400D01*
X154779449Y-90763001D01*
X155246553Y-90763001D01*
X155258791Y-90762400D01*
X155263001Y-90761985D01*
X155267211Y-90762400D01*
X155279449Y-90763001D01*
X155746553Y-90763001D01*
X155758791Y-90762400D01*
X155763001Y-90761985D01*
X155767211Y-90762400D01*
X155767211Y-90762400D01*
G37*
G36*
X161025000Y-93693000D02*
X159523000Y-93693000D01*
X159523000Y-92471000D01*
X161025000Y-92471000D01*
X161025000Y-93693000D01*
X161025000Y-93693000D01*
G37*
G36*
X158739000Y-93693000D02*
X157237000Y-93693000D01*
X157237000Y-92471000D01*
X158739000Y-92471000D01*
X158739000Y-93693000D01*
X158739000Y-93693000D01*
G37*
G36*
X152135000Y-93693000D02*
X150633000Y-93693000D01*
X150633000Y-92471000D01*
X152135000Y-92471000D01*
X152135000Y-93693000D01*
X152135000Y-93693000D01*
G37*
G36*
X164110443Y-90645519D02*
X164176627Y-90652037D01*
X164289853Y-90686384D01*
X164346467Y-90703557D01*
X164455776Y-90761985D01*
X164502991Y-90787222D01*
X164515573Y-90797548D01*
X164640186Y-90899814D01*
X164723448Y-91001271D01*
X164752778Y-91037009D01*
X164752779Y-91037011D01*
X164836443Y-91193533D01*
X164836443Y-91193534D01*
X164887963Y-91363373D01*
X164905359Y-91540000D01*
X164887963Y-91716627D01*
X164873223Y-91765217D01*
X164836443Y-91886467D01*
X164818311Y-91920389D01*
X164752778Y-92042991D01*
X164723448Y-92078729D01*
X164640186Y-92180186D01*
X164538729Y-92263448D01*
X164502991Y-92292778D01*
X164502989Y-92292779D01*
X164346467Y-92376443D01*
X164289853Y-92393616D01*
X164176627Y-92427963D01*
X164110443Y-92434481D01*
X164044260Y-92441000D01*
X163955740Y-92441000D01*
X163889557Y-92434481D01*
X163823373Y-92427963D01*
X163710147Y-92393616D01*
X163653533Y-92376443D01*
X163497011Y-92292779D01*
X163497009Y-92292778D01*
X163461271Y-92263448D01*
X163359814Y-92180186D01*
X163276552Y-92078729D01*
X163247222Y-92042991D01*
X163181689Y-91920389D01*
X163163557Y-91886467D01*
X163126777Y-91765217D01*
X163112037Y-91716627D01*
X163094641Y-91540000D01*
X163112037Y-91363373D01*
X163163557Y-91193534D01*
X163163557Y-91193533D01*
X163247221Y-91037011D01*
X163247222Y-91037009D01*
X163276552Y-91001271D01*
X163359814Y-90899814D01*
X163484427Y-90797548D01*
X163497009Y-90787222D01*
X163544224Y-90761985D01*
X163653533Y-90703557D01*
X163710147Y-90686384D01*
X163823373Y-90652037D01*
X163889557Y-90645519D01*
X163955740Y-90639000D01*
X164044260Y-90639000D01*
X164110443Y-90645519D01*
X164110443Y-90645519D01*
G37*
G36*
X148110443Y-90645519D02*
X148176627Y-90652037D01*
X148289853Y-90686384D01*
X148346467Y-90703557D01*
X148455776Y-90761985D01*
X148502991Y-90787222D01*
X148515573Y-90797548D01*
X148640186Y-90899814D01*
X148723448Y-91001271D01*
X148752778Y-91037009D01*
X148752779Y-91037011D01*
X148836443Y-91193533D01*
X148836443Y-91193534D01*
X148887963Y-91363373D01*
X148905359Y-91540000D01*
X148887963Y-91716627D01*
X148873223Y-91765217D01*
X148836443Y-91886467D01*
X148818311Y-91920389D01*
X148752778Y-92042991D01*
X148723448Y-92078729D01*
X148640186Y-92180186D01*
X148538729Y-92263448D01*
X148502991Y-92292778D01*
X148502989Y-92292779D01*
X148346467Y-92376443D01*
X148289853Y-92393616D01*
X148176627Y-92427963D01*
X148110443Y-92434481D01*
X148044260Y-92441000D01*
X147955740Y-92441000D01*
X147889557Y-92434481D01*
X147823373Y-92427963D01*
X147710147Y-92393616D01*
X147653533Y-92376443D01*
X147497011Y-92292779D01*
X147497009Y-92292778D01*
X147461271Y-92263448D01*
X147359814Y-92180186D01*
X147276552Y-92078729D01*
X147247222Y-92042991D01*
X147181689Y-91920389D01*
X147163557Y-91886467D01*
X147126777Y-91765217D01*
X147112037Y-91716627D01*
X147094641Y-91540000D01*
X147112037Y-91363373D01*
X147163557Y-91193534D01*
X147163557Y-91193533D01*
X147247221Y-91037011D01*
X147247222Y-91037009D01*
X147276552Y-91001271D01*
X147359814Y-90899814D01*
X147484427Y-90797548D01*
X147497009Y-90787222D01*
X147544224Y-90761985D01*
X147653533Y-90703557D01*
X147710147Y-90686384D01*
X147823373Y-90652037D01*
X147889557Y-90645519D01*
X147955740Y-90639000D01*
X148044260Y-90639000D01*
X148110443Y-90645519D01*
X148110443Y-90645519D01*
G37*
G36*
X158739000Y-91933000D02*
X157237000Y-91933000D01*
X157237000Y-90711000D01*
X158739000Y-90711000D01*
X158739000Y-91933000D01*
X158739000Y-91933000D01*
G37*
G36*
X161025000Y-91933000D02*
X159523000Y-91933000D01*
X159523000Y-90711000D01*
X161025000Y-90711000D01*
X161025000Y-91933000D01*
X161025000Y-91933000D01*
G37*
G36*
X152135000Y-91933000D02*
X150633000Y-91933000D01*
X150633000Y-90711000D01*
X152135000Y-90711000D01*
X152135000Y-91933000D01*
X152135000Y-91933000D01*
G37*
G36*
X156513200Y-90143000D02*
X155111200Y-90143000D01*
X155111200Y-86641000D01*
X156513200Y-86641000D01*
X156513200Y-90143000D01*
X156513200Y-90143000D01*
G37*
G36*
X154413200Y-90143000D02*
X153011200Y-90143000D01*
X153011200Y-86641000D01*
X154413200Y-86641000D01*
X154413200Y-90143000D01*
X154413200Y-90143000D01*
G37*
G36*
X164901000Y-89901000D02*
X163099000Y-89901000D01*
X163099000Y-88099000D01*
X164901000Y-88099000D01*
X164901000Y-89901000D01*
X164901000Y-89901000D01*
G37*
G36*
X148901000Y-89901000D02*
X147099000Y-89901000D01*
X147099000Y-88099000D01*
X148901000Y-88099000D01*
X148901000Y-89901000D01*
X148901000Y-89901000D01*
G37*
M02*
